<svg width="1500" height="1500" viewBox="0 0 1500 1500" fill="none" xmlns="http://www.w3.org/2000/svg">
<path d="M750 1500C1168.14 1500 1500 1161.5 1500 750C1500 331.858 1161.5 0 750 0C331.858 0 0 338.496 0 750C0 1161.5 338.496 1500 750 1500Z" fill="#2C374B"/>
<path fill-rule="evenodd" clip-rule="evenodd" d="M1161.5 477.877C1154.87 471.239 829.644 278.762 789.821 265.487C776.547 258.85 743.361 252.213 723.449 258.85C703.538 265.487 358.405 464.602 345.131 477.877C338.494 484.514 331.856 497.788 325.219 504.425C318.582 517.7 318.582 524.337 318.582 756.638V995.576L365.042 1022.12C391.591 1035.4 411.502 1048.67 411.502 1048.67C418.14 1048.67 730.087 550.885 730.087 544.248C730.087 537.611 657.078 537.611 637.166 544.248C610.618 550.885 590.706 564.16 577.432 577.434C570.794 584.071 530.971 650.443 477.874 723.452C431.414 796.461 391.591 862.832 391.591 862.832C391.591 862.832 391.591 796.461 391.591 703.54V537.611L398.228 530.974C411.502 517.7 749.998 325.222 763.272 325.222C769.91 325.222 776.547 325.222 856.193 371.682C882.741 384.956 955.75 424.779 1015.48 464.602C1075.22 497.788 1128.32 530.974 1134.95 537.611L1141.59 544.248V889.381L975.662 630.532C969.024 617.257 962.387 603.983 955.75 597.346C955.75 597.346 949.113 610.62 909.29 676.992C902.653 683.629 896.016 696.903 896.016 703.54L889.379 716.815L896.016 723.452L902.653 730.089C902.653 730.089 902.653 736.726 909.29 736.726L922.564 756.638C922.564 756.638 922.564 763.275 929.202 763.275C935.839 769.912 942.476 783.186 942.476 789.824C942.476 789.824 942.476 789.823 942.476 796.461L1081.86 1022.12L1068.58 1028.76C1061.94 1035.4 1055.31 1035.4 1048.67 1035.4L876.104 769.912L869.467 763.275L856.193 789.824L789.821 896.018L922.564 1108.41C902.653 1121.68 789.821 1201.33 783.184 1201.33C776.547 1201.33 623.892 1101.77 630.529 1095.13C630.529 1095.13 676.989 1015.49 730.087 922.567C776.547 842.921 836.281 743.363 876.104 676.992C922.564 597.346 942.476 557.523 942.476 557.523C942.476 557.523 909.29 557.523 869.467 557.523H803.095L650.44 809.735C597.343 902.655 544.246 988.939 517.697 1035.4C471.237 1042.04 457.963 1055.31 457.963 1055.31L451.325 1068.58L570.794 1134.96C637.166 1174.78 696.901 1207.97 710.175 1214.6C730.086 1227.88 763.272 1227.88 776.547 1227.88C789.821 1221.24 1134.95 1022.12 1154.87 1008.85C1161.5 1002.21 1168.14 995.576 1174.78 982.301L1181.41 962.39V743.363V524.337L1174.78 511.062C1174.78 497.788 1161.5 484.514 1161.5 477.877Z" fill="white"/>
<path d="M1128.32 882.743L929.2 577.434L856.191 696.903L1048.67 1008.85L1134.95 969.027L1128.32 882.743Z" fill="#24A2EE"/>
<path d="M1035.39 1048.67L836.275 743.363L749.992 876.106L909.284 1128.32L1008.84 1088.5L1035.39 1048.67Z" fill="#24A2EE"/>
<path fill-rule="evenodd" clip-rule="evenodd" d="M384.958 537.612L750.002 325.222L1115.05 537.612V962.39L750.002 1174.78L477.878 1022.12L444.693 1081.86L743.365 1254.43C750.002 1261.06 756.639 1261.06 763.277 1254.43L1181.42 1015.49C1188.06 1008.85 1194.69 1002.21 1194.69 995.576V517.7C1194.69 511.063 1188.06 504.426 1181.42 497.789L763.277 258.85C756.639 252.213 750.002 252.213 743.365 258.85L325.224 491.151C318.586 497.789 311.949 504.426 311.949 511.063V988.939C311.949 995.576 318.586 1002.21 325.224 1008.85L411.507 1055.31L451.33 995.576L391.595 962.39V537.612H384.958Z" fill="#98BCDC"/>
<path d="M909.293 537.611H769.913L444.691 1068.58L557.523 1134.96L909.293 537.611Z" fill="white"/>
<path d="M557.524 590.709C590.71 537.611 683.631 537.611 723.454 544.248L404.87 1055.31C391.595 1048.67 365.047 1035.4 345.135 1022.12C318.586 1008.85 311.949 1008.85 311.949 988.939V962.39C384.958 856.195 524.339 643.806 557.524 590.709Z" fill="white"/>
</svg>
