<svg width="1500" height="1500" viewBox="0 0 1500 1500" fill="none" xmlns="http://www.w3.org/2000/svg">
<path d="M750 1500C1164.21 1500 1500 1164.21 1500 750C1500 335.786 1164.21 0 750 0C335.786 0 0 335.786 0 750C0 1164.21 335.786 1500 750 1500Z" fill="#E84142"/>
<path d="M1014.58 769.488C1040.56 724.606 1082.49 724.606 1108.47 769.488L1270.28 1053.54C1296.27 1098.43 1275.01 1135.04 1223.04 1135.04H897.055C845.677 1135.04 824.418 1098.43 849.811 1053.54L1014.58 769.488ZM701.583 222.638C727.567 177.756 768.906 177.756 794.89 222.638L830.914 287.598L915.953 437.008C936.622 479.528 936.622 529.724 915.953 572.244L630.717 1066.54C604.733 1106.69 561.622 1132.09 513.788 1135.04H276.977C225.008 1135.04 203.748 1099.02 229.732 1053.54L701.583 222.638Z" fill="white"/>
</svg>
