<svg width="1500" height="1500" viewBox="0 0 1500 1500" fill="none" xmlns="http://www.w3.org/2000/svg">
<mask id="mask0_192_684" style="mask-type:luminance" maskUnits="userSpaceOnUse" x="0" y="0" width="1500" height="1500">
<path d="M750 1500C335.76 1500 0 1164.24 0 750C0 335.76 335.76 0 750 0C1164.24 0 1500 335.76 1500 750C1500 1164.24 1164.24 1500 750 1500Z" fill="white"/>
</mask>
<g mask="url(#mask0_192_684)">
<path fill-rule="evenodd" clip-rule="evenodd" d="M749.999 750L-310.801 743.46L-309.841 704.46L749.999 750Z" fill="#FEFEFF"/>
<path fill-rule="evenodd" clip-rule="evenodd" d="M750 750L-310.02 710.94L-308.4 678.42L750 750Z" fill="#FDFEFF"/>
<path fill-rule="evenodd" clip-rule="evenodd" d="M749.998 750L-308.762 684.96L-306.362 652.5L749.998 750Z" fill="#FCFDFF"/>
<path fill-rule="evenodd" clip-rule="evenodd" d="M750 750L-306.84 658.98L-303.66 626.58L750 750Z" fill="#FBFCFF"/>
<path fill-rule="evenodd" clip-rule="evenodd" d="M749.998 750L-304.262 633.06L-300.302 600.78L749.998 750Z" fill="#FAFCFF"/>
<path fill-rule="evenodd" clip-rule="evenodd" d="M749.998 750L-301.082 607.26L-296.342 575.04L749.998 750Z" fill="#F9FBFF"/>
<path fill-rule="evenodd" clip-rule="evenodd" d="M750.002 750L-297.238 581.46L-291.718 549.42L750.002 750Z" fill="#F8FAFF"/>
<path fill-rule="evenodd" clip-rule="evenodd" d="M749.999 750L-292.801 555.84L-286.501 523.92L749.999 750Z" fill="#F7FAFF"/>
<path fill-rule="evenodd" clip-rule="evenodd" d="M749.998 750L-287.762 530.34L-280.622 498.54L749.998 750Z" fill="#F6F9FF"/>
<path fill-rule="evenodd" clip-rule="evenodd" d="M749.997 750L-282.062 504.9L-274.142 473.34L749.997 750Z" fill="#F5F8FF"/>
<path fill-rule="evenodd" clip-rule="evenodd" d="M750.001 750L-275.699 479.64L-267.059 448.26L750.001 750Z" fill="#F4F8FF"/>
<path fill-rule="evenodd" clip-rule="evenodd" d="M749.999 750L-268.801 454.56L-259.321 423.42L749.999 750Z" fill="#F3F7FF"/>
<path fill-rule="evenodd" clip-rule="evenodd" d="M750.002 750L-261.238 429.66L-250.978 398.76L750.002 750Z" fill="#F2F6FF"/>
<path fill-rule="evenodd" clip-rule="evenodd" d="M749.998 750L-253.082 404.94L-242.102 374.28L749.998 750Z" fill="#F1F6FF"/>
<path fill-rule="evenodd" clip-rule="evenodd" d="M749.998 750L-244.262 380.4L-232.562 350.04L749.998 750Z" fill="#F0F5FF"/>
<path fill-rule="evenodd" clip-rule="evenodd" d="M749.998 750L-234.902 356.1L-222.482 326.04L749.998 750Z" fill="#EFF4FF"/>
<path fill-rule="evenodd" clip-rule="evenodd" d="M749.999 750L-224.941 332.04L-211.741 302.34L749.999 750Z" fill="#EEF3FF"/>
<path fill-rule="evenodd" clip-rule="evenodd" d="M749.997 750L-214.383 308.28L-200.463 278.88L749.997 750Z" fill="#EDF3FF"/>
<path fill-rule="evenodd" clip-rule="evenodd" d="M749.999 750L-203.281 284.76L-188.641 255.66L749.999 750Z" fill="#ECF2FF"/>
<path fill-rule="evenodd" clip-rule="evenodd" d="M749.998 750L-191.582 261.48L-176.222 232.8L749.998 750Z" fill="#EBF1FF"/>
<path fill-rule="evenodd" clip-rule="evenodd" d="M749.999 750L-179.281 238.56L-163.261 210.18L749.999 750Z" fill="#EAF1FF"/>
<path fill-rule="evenodd" clip-rule="evenodd" d="M749.999 750L-166.441 215.88L-149.701 187.98L749.999 750Z" fill="#E9F0FF"/>
<path fill-rule="evenodd" clip-rule="evenodd" d="M749.998 750L-153.062 193.56L-135.662 166.02L749.998 750Z" fill="#E8EFFF"/>
<path fill-rule="evenodd" clip-rule="evenodd" d="M749.999 750L-139.141 171.54L-121.021 144.48L749.999 750Z" fill="#E7EFFF"/>
<path fill-rule="evenodd" clip-rule="evenodd" d="M750 750L-124.68 149.88L-105.96 123.3L750 750Z" fill="#E6EEFF"/>
<path fill-rule="evenodd" clip-rule="evenodd" d="M750 750L-109.68 128.64L-90.2997 102.48L750 750Z" fill="#E5EDFF"/>
<path fill-rule="evenodd" clip-rule="evenodd" d="M750.001 750L-94.1992 107.7L-74.1592 82.02L750.001 750Z" fill="#E4EDFF"/>
<path fill-rule="evenodd" clip-rule="evenodd" d="M750 750L-78.1797 87.18L-57.5397 62.04L750 750Z" fill="#E3ECFF"/>
<path fill-rule="evenodd" clip-rule="evenodd" d="M749.999 750L-61.6211 67.0799L-40.3811 42.4199L749.999 750Z" fill="#E2EBFF"/>
<path fill-rule="evenodd" clip-rule="evenodd" d="M749.999 750L-44.6406 47.34L-22.8006 23.22L749.999 750Z" fill="#E1EBFF"/>
<path fill-rule="evenodd" clip-rule="evenodd" d="M750 750L-27.1797 28.08L-4.73969 4.5L750 750Z" fill="#E0EAFF"/>
<path fill-rule="evenodd" clip-rule="evenodd" d="M750.002 750L-9.23828 9.23995L13.8017 -13.8L750.002 750Z" fill="#DFE9FF"/>
<path fill-rule="evenodd" clip-rule="evenodd" d="M749.998 750L9.23828 -9.24011L32.7583 -31.6201L749.998 750Z" fill="#DEE9FF"/>
<path fill-rule="evenodd" clip-rule="evenodd" d="M749.998 750L28.0781 -27.18L52.1981 -49.02L749.998 750Z" fill="#DDE8FF"/>
<path fill-rule="evenodd" clip-rule="evenodd" d="M750 750L47.3398 -44.6401L71.9998 -65.8801L750 750Z" fill="#DCE7FF"/>
<path fill-rule="evenodd" clip-rule="evenodd" d="M749.998 750L67.0781 -61.62L92.2181 -82.26L749.998 750Z" fill="#DBE7FF"/>
<path fill-rule="evenodd" clip-rule="evenodd" d="M750 750L87.1797 -78.1802L112.86 -98.1602L750 750Z" fill="#DAE6FF"/>
<path fill-rule="evenodd" clip-rule="evenodd" d="M749.999 750L107.699 -94.2001L133.859 -113.58L749.999 750Z" fill="#D9E5FF"/>
<path fill-rule="evenodd" clip-rule="evenodd" d="M749.997 750L128.637 -109.68L155.217 -128.4L749.997 750Z" fill="#D8E5FF"/>
<path fill-rule="evenodd" clip-rule="evenodd" d="M749.999 750L149.879 -124.68L176.939 -142.74L749.999 750Z" fill="#D7E4FF"/>
<path fill-rule="evenodd" clip-rule="evenodd" d="M749.999 750L171.539 -139.14L199.079 -156.54L749.999 750Z" fill="#D6E3FF"/>
<path fill-rule="evenodd" clip-rule="evenodd" d="M749.999 750L193.559 -153.06L221.459 -169.8L749.999 750Z" fill="#D5E3FF"/>
<path fill-rule="evenodd" clip-rule="evenodd" d="M749.999 750L215.879 -166.44L244.199 -182.46L749.999 750Z" fill="#D4E2FF"/>
<path fill-rule="evenodd" clip-rule="evenodd" d="M749.999 750L238.559 -179.28L267.239 -194.64L749.999 750Z" fill="#D3E1FF"/>
<path fill-rule="evenodd" clip-rule="evenodd" d="M750 750L261.48 -191.58L290.58 -206.16L750 750Z" fill="#D2E0FF"/>
<path fill-rule="evenodd" clip-rule="evenodd" d="M750.002 750L284.762 -203.28L314.162 -217.14L750.002 750Z" fill="#D1E0FF"/>
<path fill-rule="evenodd" clip-rule="evenodd" d="M750.001 750L308.281 -214.38L338.041 -227.58L750.001 750Z" fill="#D0DFFF"/>
<path fill-rule="evenodd" clip-rule="evenodd" d="M749.999 750L332.039 -224.94L362.159 -237.42L749.999 750Z" fill="#CFDEFF"/>
<path fill-rule="evenodd" clip-rule="evenodd" d="M749.998 750L356.098 -234.9L386.518 -246.6L749.998 750Z" fill="#CEDEFF"/>
<path fill-rule="evenodd" clip-rule="evenodd" d="M749.998 750L380.398 -244.26L411.058 -255.24L749.998 750Z" fill="#CDDDFF"/>
<path fill-rule="evenodd" clip-rule="evenodd" d="M749.997 750L404.938 -253.08L435.838 -263.22L749.997 750Z" fill="#CCDCFF"/>
<path fill-rule="evenodd" clip-rule="evenodd" d="M750 750L429.66 -261.24L460.8 -270.66L750 750Z" fill="#CBDCFF"/>
<path fill-rule="evenodd" clip-rule="evenodd" d="M749.999 750L454.559 -268.8L485.939 -277.44L749.999 750Z" fill="#CADBFF"/>
<path fill-rule="evenodd" clip-rule="evenodd" d="M749.997 750L479.637 -275.7L511.197 -283.62L749.997 750Z" fill="#C9DAFF"/>
<path fill-rule="evenodd" clip-rule="evenodd" d="M749.998 750L504.898 -282.06L536.638 -289.14L749.998 750Z" fill="#C8DAFF"/>
<path fill-rule="evenodd" clip-rule="evenodd" d="M750 750L530.34 -287.76L562.2 -294.06L750 750Z" fill="#C7D9FF"/>
<path fill-rule="evenodd" clip-rule="evenodd" d="M750 750L555.84 -292.8L587.88 -298.38L750 750Z" fill="#C6D8FF"/>
<path fill-rule="evenodd" clip-rule="evenodd" d="M750.001 750L581.461 -297.24L613.681 -302.04L750.001 750Z" fill="#C5D8FF"/>
<path fill-rule="evenodd" clip-rule="evenodd" d="M750.002 750L607.262 -301.08L639.542 -305.04L750.002 750Z" fill="#C4D7FF"/>
<path fill-rule="evenodd" clip-rule="evenodd" d="M749.999 750L633.059 -304.26L665.459 -307.44L749.999 750Z" fill="#C3D6FF"/>
<path fill-rule="evenodd" clip-rule="evenodd" d="M750 750L658.98 -306.84L691.44 -309.24L750 750Z" fill="#C2D6FF"/>
<path fill-rule="evenodd" clip-rule="evenodd" d="M750.001 750L684.961 -308.76L717.481 -310.32L750.001 750Z" fill="#C1D5FF"/>
<path fill-rule="evenodd" clip-rule="evenodd" d="M749.997 750L710.938 -310.02L743.457 -310.8L749.997 750Z" fill="#C0D4FF"/>
<path fill-rule="evenodd" clip-rule="evenodd" d="M750 750L736.98 -310.68H769.5L750 750Z" fill="#BFD4FF"/>
<path fill-rule="evenodd" clip-rule="evenodd" d="M750 750L763.02 -310.68L795.54 -309.84L750 750Z" fill="#BED3FF"/>
<path fill-rule="evenodd" clip-rule="evenodd" d="M750 750L789.06 -310.02L821.52 -308.4L750 750Z" fill="#BDD2FF"/>
<path fill-rule="evenodd" clip-rule="evenodd" d="M750 750L815.04 -308.76L847.5 -306.36L750 750Z" fill="#BCD2FF"/>
<path fill-rule="evenodd" clip-rule="evenodd" d="M750 750L841.02 -306.84L873.42 -303.66L750 750Z" fill="#BBD1FF"/>
<path fill-rule="evenodd" clip-rule="evenodd" d="M750 750L866.88 -304.26L899.22 -300.3L750 750Z" fill="#BAD0FF"/>
<path fill-rule="evenodd" clip-rule="evenodd" d="M750 750L892.74 -301.08L924.96 -296.34L750 750Z" fill="#B9D0FF"/>
<path fill-rule="evenodd" clip-rule="evenodd" d="M750 750L918.48 -297.24L950.58 -291.72L750 750Z" fill="#B8CFFF"/>
<path fill-rule="evenodd" clip-rule="evenodd" d="M750 750L944.16 -292.8L976.08 -286.5L750 750Z" fill="#B7CEFF"/>
<path fill-rule="evenodd" clip-rule="evenodd" d="M750 750L969.66 -287.76L1001.46 -280.62L750 750Z" fill="#B6CDFF"/>
<path fill-rule="evenodd" clip-rule="evenodd" d="M750 750L995.1 -282.06L1026.66 -274.14L750 750Z" fill="#B5CDFF"/>
<path fill-rule="evenodd" clip-rule="evenodd" d="M750 750L1020.36 -275.7L1051.68 -267.06L750 750Z" fill="#B4CCFF"/>
<path fill-rule="evenodd" clip-rule="evenodd" d="M750 750L1045.44 -268.8L1076.58 -259.32L750 750Z" fill="#B3CBFF"/>
<path fill-rule="evenodd" clip-rule="evenodd" d="M750 750L1070.34 -261.24L1101.24 -250.98L750 750Z" fill="#B2CBFF"/>
<path fill-rule="evenodd" clip-rule="evenodd" d="M750 750L1095.06 -253.08L1125.72 -242.1L750 750Z" fill="#B1CAFF"/>
<path fill-rule="evenodd" clip-rule="evenodd" d="M750 750L1119.6 -244.26L1149.96 -232.56L750 750Z" fill="#B0C9FF"/>
<path fill-rule="evenodd" clip-rule="evenodd" d="M750 750L1143.84 -234.9L1173.96 -222.48L750 750Z" fill="#AFC9FF"/>
<path fill-rule="evenodd" clip-rule="evenodd" d="M750 750L1167.9 -224.94L1197.66 -211.74L750 750Z" fill="#AEC8FF"/>
<path fill-rule="evenodd" clip-rule="evenodd" d="M750 750L1191.72 -214.38L1221.12 -200.46L750 750Z" fill="#ADC7FF"/>
<path fill-rule="evenodd" clip-rule="evenodd" d="M750 750L1215.24 -203.28L1244.34 -188.64L750 750Z" fill="#ACC7FF"/>
<path fill-rule="evenodd" clip-rule="evenodd" d="M750 750L1238.52 -191.58L1267.2 -176.22L750 750Z" fill="#ABC6FF"/>
<path fill-rule="evenodd" clip-rule="evenodd" d="M750 750L1261.44 -179.28L1289.82 -163.26L750 750Z" fill="#AAC5FF"/>
<path fill-rule="evenodd" clip-rule="evenodd" d="M750 750L1284.12 -166.44L1312.02 -149.7L750 750Z" fill="#A9C5FF"/>
<path fill-rule="evenodd" clip-rule="evenodd" d="M750 750L1306.44 -153.06L1333.92 -135.66L750 750Z" fill="#A8C4FF"/>
<path fill-rule="evenodd" clip-rule="evenodd" d="M750 750L1328.46 -139.14L1355.52 -121.02L750 750Z" fill="#A7C3FF"/>
<path fill-rule="evenodd" clip-rule="evenodd" d="M750 750L1350.12 -124.68L1376.7 -105.96L750 750Z" fill="#A6C3FF"/>
<path fill-rule="evenodd" clip-rule="evenodd" d="M750 750L1371.36 -109.68L1397.52 -90.3002L750 750Z" fill="#A5C2FF"/>
<path fill-rule="evenodd" clip-rule="evenodd" d="M750 750L1392.3 -94.2L1417.92 -74.1599L750 750Z" fill="#A4C1FF"/>
<path fill-rule="evenodd" clip-rule="evenodd" d="M750 750L1412.82 -78.1802L1437.96 -57.5402L750 750Z" fill="#A3C1FF"/>
<path fill-rule="evenodd" clip-rule="evenodd" d="M750 750L1432.92 -61.6201L1457.58 -40.3801L750 750Z" fill="#A2C0FF"/>
<path fill-rule="evenodd" clip-rule="evenodd" d="M750 750L1452.66 -44.6401L1476.78 -22.8001L750 750Z" fill="#A1BFFF"/>
<path fill-rule="evenodd" clip-rule="evenodd" d="M750 750L1471.92 -27.1802L1495.5 -4.74018L750 750Z" fill="#A0BFFF"/>
<path fill-rule="evenodd" clip-rule="evenodd" d="M750 750L1490.76 -9.23999L1513.8 13.8L750 750Z" fill="#9FBEFF"/>
<path fill-rule="evenodd" clip-rule="evenodd" d="M750 750L1509.18 9.23999L1531.62 32.76L750 750Z" fill="#9EBDFF"/>
<path fill-rule="evenodd" clip-rule="evenodd" d="M750 750L1527.18 28.0801L1549.02 52.2001L750 750Z" fill="#9DBDFF"/>
<path fill-rule="evenodd" clip-rule="evenodd" d="M750 750L1544.64 47.3398L1565.88 71.9998L750 750Z" fill="#9CBCFF"/>
<path fill-rule="evenodd" clip-rule="evenodd" d="M750 750L1561.62 67.0801L1582.26 92.2201L750 750Z" fill="#9BBBFF"/>
<path fill-rule="evenodd" clip-rule="evenodd" d="M750 750L1578.18 87.1799L1598.16 112.86L750 750Z" fill="#9ABAFF"/>
<path fill-rule="evenodd" clip-rule="evenodd" d="M750 750L1594.2 107.7L1613.58 133.86L750 750Z" fill="#99BAFF"/>
<path fill-rule="evenodd" clip-rule="evenodd" d="M750 750L1609.68 128.64L1628.4 155.22L750 750Z" fill="#98B9FF"/>
<path fill-rule="evenodd" clip-rule="evenodd" d="M750 750L1624.68 149.88L1642.74 176.94L750 750Z" fill="#97B8FF"/>
<path fill-rule="evenodd" clip-rule="evenodd" d="M750 750L1639.14 171.54L1656.54 199.08L750 750Z" fill="#96B8FF"/>
<path fill-rule="evenodd" clip-rule="evenodd" d="M750 750L1653.06 193.56L1669.8 221.46L750 750Z" fill="#95B7FF"/>
<path fill-rule="evenodd" clip-rule="evenodd" d="M750 750L1666.44 215.88L1682.46 244.2L750 750Z" fill="#94B6FF"/>
<path fill-rule="evenodd" clip-rule="evenodd" d="M750 750L1679.28 238.56L1694.58 267.24L750 750Z" fill="#93B6FF"/>
<path fill-rule="evenodd" clip-rule="evenodd" d="M750 750L1691.52 261.48L1706.16 290.58L750 750Z" fill="#92B5FF"/>
<path fill-rule="evenodd" clip-rule="evenodd" d="M750 750L1703.28 284.76L1717.14 314.16L750 750Z" fill="#91B4FF"/>
<path fill-rule="evenodd" clip-rule="evenodd" d="M750 750L1714.38 308.28L1727.58 338.04L750 750Z" fill="#90B4FF"/>
<path fill-rule="evenodd" clip-rule="evenodd" d="M750 750L1724.94 332.04L1737.36 362.16L750 750Z" fill="#8FB3FF"/>
<path fill-rule="evenodd" clip-rule="evenodd" d="M750 750L1734.9 356.1L1746.6 386.52L750 750Z" fill="#8EB2FF"/>
<path fill-rule="evenodd" clip-rule="evenodd" d="M750 750L1744.26 380.4L1755.24 411.06L750 750Z" fill="#8DB2FF"/>
<path fill-rule="evenodd" clip-rule="evenodd" d="M750 750L1753.02 404.94L1763.22 435.84L750 750Z" fill="#8CB1FF"/>
<path fill-rule="evenodd" clip-rule="evenodd" d="M750 750L1761.18 429.66L1770.66 460.8L750 750Z" fill="#8BB0FF"/>
<path fill-rule="evenodd" clip-rule="evenodd" d="M750 750L1768.74 454.56L1777.44 485.94L750 750Z" fill="#8AB0FF"/>
<path fill-rule="evenodd" clip-rule="evenodd" d="M750 750L1775.7 479.64L1783.62 511.2L750 750Z" fill="#89AFFF"/>
<path fill-rule="evenodd" clip-rule="evenodd" d="M750 750L1782.06 504.9L1789.14 536.64L750 750Z" fill="#88AEFF"/>
<path fill-rule="evenodd" clip-rule="evenodd" d="M750 750L1787.7 530.34L1794.06 562.2L750 750Z" fill="#87AEFF"/>
<path fill-rule="evenodd" clip-rule="evenodd" d="M750 750L1792.8 555.84L1798.38 587.88L750 750Z" fill="#86ADFF"/>
<path fill-rule="evenodd" clip-rule="evenodd" d="M750 750L1797.24 581.46L1802.04 613.68L750 750Z" fill="#85ACFF"/>
<path fill-rule="evenodd" clip-rule="evenodd" d="M750 750L1801.08 607.26L1805.04 639.54L750 750Z" fill="#84ACFF"/>
<path fill-rule="evenodd" clip-rule="evenodd" d="M750 750L1804.26 633.06L1807.44 665.46L750 750Z" fill="#83ABFF"/>
<path fill-rule="evenodd" clip-rule="evenodd" d="M750 750L1806.84 658.98L1809.24 691.44L750 750Z" fill="#82AAFF"/>
<path fill-rule="evenodd" clip-rule="evenodd" d="M750 750L1808.76 684.96L1810.32 717.48L750 750Z" fill="#81AAFF"/>
<path fill-rule="evenodd" clip-rule="evenodd" d="M750 750L1810.02 710.94L1810.8 743.46L750 750Z" fill="#80A9FF"/>
<path fill-rule="evenodd" clip-rule="evenodd" d="M750 750L1810.62 736.98V769.5L750 750Z" fill="#7FA8FF"/>
<path fill-rule="evenodd" clip-rule="evenodd" d="M750 750L1810.62 763.02L1809.84 795.54L750 750Z" fill="#7EA7FF"/>
<path fill-rule="evenodd" clip-rule="evenodd" d="M750 750L1810.02 789.06L1808.4 821.52L750 750Z" fill="#7DA7FF"/>
<path fill-rule="evenodd" clip-rule="evenodd" d="M750 750L1808.76 815.04L1806.36 847.5L750 750Z" fill="#7CA6FF"/>
<path fill-rule="evenodd" clip-rule="evenodd" d="M750 750L1806.84 841.02L1803.66 873.42L750 750Z" fill="#7BA5FF"/>
<path fill-rule="evenodd" clip-rule="evenodd" d="M750 750L1804.26 866.88L1800.3 899.22L750 750Z" fill="#7AA5FF"/>
<path fill-rule="evenodd" clip-rule="evenodd" d="M750 750L1801.08 892.74L1796.28 924.96L750 750Z" fill="#79A4FF"/>
<path fill-rule="evenodd" clip-rule="evenodd" d="M750 750L1797.24 918.48L1791.72 950.58L750 750Z" fill="#78A3FF"/>
<path fill-rule="evenodd" clip-rule="evenodd" d="M750 750L1792.8 944.16L1786.44 976.08L750 750Z" fill="#77A3FF"/>
<path fill-rule="evenodd" clip-rule="evenodd" d="M750 750L1787.7 969.66L1780.62 1001.46L750 750Z" fill="#76A2FF"/>
<path fill-rule="evenodd" clip-rule="evenodd" d="M750 750L1782.06 995.1L1774.14 1026.66L750 750Z" fill="#75A1FF"/>
<path fill-rule="evenodd" clip-rule="evenodd" d="M750 750L1775.7 1020.36L1767.06 1051.68L750 750Z" fill="#74A1FF"/>
<path fill-rule="evenodd" clip-rule="evenodd" d="M750 750L1768.74 1045.44L1759.32 1076.58L750 750Z" fill="#73A0FF"/>
<path fill-rule="evenodd" clip-rule="evenodd" d="M750 750L1761.18 1070.34L1750.98 1101.24L750 750Z" fill="#729FFF"/>
<path fill-rule="evenodd" clip-rule="evenodd" d="M750 750L1753.02 1095.06L1742.1 1125.72L750 750Z" fill="#719FFF"/>
<path fill-rule="evenodd" clip-rule="evenodd" d="M750 750L1744.26 1119.6L1732.56 1149.96L750 750Z" fill="#709EFF"/>
<path fill-rule="evenodd" clip-rule="evenodd" d="M750 750L1734.9 1143.84L1722.42 1173.96L750 750Z" fill="#6F9DFF"/>
<path fill-rule="evenodd" clip-rule="evenodd" d="M750 750L1724.94 1167.9L1711.74 1197.66L750 750Z" fill="#6E9DFF"/>
<path fill-rule="evenodd" clip-rule="evenodd" d="M750 750L1714.38 1191.72L1700.46 1221.12L750 750Z" fill="#6D9CFF"/>
<path fill-rule="evenodd" clip-rule="evenodd" d="M750 750L1703.28 1215.24L1688.64 1244.34L750 750Z" fill="#6C9BFF"/>
<path fill-rule="evenodd" clip-rule="evenodd" d="M750 750L1691.52 1238.52L1676.22 1267.2L750 750Z" fill="#6B9BFF"/>
<path fill-rule="evenodd" clip-rule="evenodd" d="M750 750L1679.28 1261.44L1663.26 1289.82L750 750Z" fill="#6A9AFF"/>
<path fill-rule="evenodd" clip-rule="evenodd" d="M750 750L1666.44 1284.12L1649.7 1312.02L750 750Z" fill="#6999FF"/>
<path fill-rule="evenodd" clip-rule="evenodd" d="M750 750L1653.06 1306.44L1635.66 1333.92L750 750Z" fill="#6899FF"/>
<path fill-rule="evenodd" clip-rule="evenodd" d="M750 750L1639.14 1328.46L1621.02 1355.52L750 750Z" fill="#6798FF"/>
<path fill-rule="evenodd" clip-rule="evenodd" d="M750 750L1624.68 1350.12L1605.96 1376.7L750 750Z" fill="#6697FF"/>
<path fill-rule="evenodd" clip-rule="evenodd" d="M750 750L1609.68 1371.36L1590.3 1397.52L750 750Z" fill="#6597FF"/>
<path fill-rule="evenodd" clip-rule="evenodd" d="M750 750L1594.2 1392.3L1574.16 1417.92L750 750Z" fill="#6496FF"/>
<path fill-rule="evenodd" clip-rule="evenodd" d="M750 750L1578.18 1412.82L1557.54 1437.96L750 750Z" fill="#6395FF"/>
<path fill-rule="evenodd" clip-rule="evenodd" d="M750 750L1561.62 1432.92L1540.38 1457.58L750 750Z" fill="#6294FF"/>
<path fill-rule="evenodd" clip-rule="evenodd" d="M750 750L1544.64 1452.66L1522.8 1476.78L750 750Z" fill="#6194FF"/>
<path fill-rule="evenodd" clip-rule="evenodd" d="M750 750L1527.18 1471.92L1504.74 1495.5L750 750Z" fill="#6093FF"/>
<path fill-rule="evenodd" clip-rule="evenodd" d="M750 750L1509.18 1490.76L1486.2 1513.8L750 750Z" fill="#5F92FF"/>
<path fill-rule="evenodd" clip-rule="evenodd" d="M750 750L1490.76 1509.18L1467.24 1531.62L750 750Z" fill="#5E92FF"/>
<path fill-rule="evenodd" clip-rule="evenodd" d="M750 750L1471.92 1527.18L1447.8 1549.02L750 750Z" fill="#5D91FF"/>
<path fill-rule="evenodd" clip-rule="evenodd" d="M750 750L1452.66 1544.64L1428 1565.88L750 750Z" fill="#5C90FF"/>
<path fill-rule="evenodd" clip-rule="evenodd" d="M750 750L1432.92 1561.62L1407.78 1582.26L750 750Z" fill="#5B90FF"/>
<path fill-rule="evenodd" clip-rule="evenodd" d="M750 750L1412.82 1578.18L1387.14 1598.16L750 750Z" fill="#5A8FFF"/>
<path fill-rule="evenodd" clip-rule="evenodd" d="M750 750L1392.3 1594.2L1366.14 1613.58L750 750Z" fill="#598EFF"/>
<path fill-rule="evenodd" clip-rule="evenodd" d="M750 750L1371.36 1609.68L1344.78 1628.4L750 750Z" fill="#588EFF"/>
<path fill-rule="evenodd" clip-rule="evenodd" d="M750 750L1350.12 1624.68L1323 1642.74L750 750Z" fill="#578DFF"/>
<path fill-rule="evenodd" clip-rule="evenodd" d="M750 750L1328.46 1639.14L1300.92 1656.54L750 750Z" fill="#568CFF"/>
<path fill-rule="evenodd" clip-rule="evenodd" d="M750 750L1306.44 1653.06L1278.54 1669.8L750 750Z" fill="#558CFF"/>
<path fill-rule="evenodd" clip-rule="evenodd" d="M750 750L1284.12 1666.44L1255.8 1682.46L750 750Z" fill="#548BFF"/>
<path fill-rule="evenodd" clip-rule="evenodd" d="M750 750L1261.44 1679.28L1232.76 1694.58L750 750Z" fill="#538AFF"/>
<path fill-rule="evenodd" clip-rule="evenodd" d="M750 750L1238.52 1691.52L1209.42 1706.16L750 750Z" fill="#528AFF"/>
<path fill-rule="evenodd" clip-rule="evenodd" d="M750 750L1215.24 1703.28L1185.84 1717.14L750 750Z" fill="#5189FF"/>
<path fill-rule="evenodd" clip-rule="evenodd" d="M750 750L1191.72 1714.38L1161.96 1727.58L750 750Z" fill="#5088FF"/>
<path fill-rule="evenodd" clip-rule="evenodd" d="M750 750L1167.9 1724.94L1137.84 1737.36L750 750Z" fill="#4F88FF"/>
<path fill-rule="evenodd" clip-rule="evenodd" d="M750 750L1143.84 1734.9L1113.48 1746.6L750 750Z" fill="#4E87FF"/>
<path fill-rule="evenodd" clip-rule="evenodd" d="M750 750L1119.6 1744.26L1088.94 1755.24L750 750Z" fill="#4D86FF"/>
<path fill-rule="evenodd" clip-rule="evenodd" d="M750 750L1095.06 1753.02L1064.16 1763.22L750 750Z" fill="#4C86FF"/>
<path fill-rule="evenodd" clip-rule="evenodd" d="M750 750L1070.34 1761.18L1039.2 1770.66L750 750Z" fill="#4B85FF"/>
<path fill-rule="evenodd" clip-rule="evenodd" d="M750 750L1045.44 1768.74L1014.06 1777.44L750 750Z" fill="#4A84FF"/>
<path fill-rule="evenodd" clip-rule="evenodd" d="M750 750L1020.36 1775.7L988.74 1783.62L750 750Z" fill="#4984FF"/>
<path fill-rule="evenodd" clip-rule="evenodd" d="M750 750L995.1 1782.06L963.36 1789.14L750 750Z" fill="#4883FF"/>
<path fill-rule="evenodd" clip-rule="evenodd" d="M750 750L969.66 1787.7L937.74 1794.06L750 750Z" fill="#4782FF"/>
<path fill-rule="evenodd" clip-rule="evenodd" d="M750 750L944.16 1792.8L912.12 1798.38L750 750Z" fill="#4681FF"/>
<path fill-rule="evenodd" clip-rule="evenodd" d="M750 750L918.48 1797.24L886.32 1802.04L750 750Z" fill="#4581FF"/>
<path fill-rule="evenodd" clip-rule="evenodd" d="M750 750L892.74 1801.08L860.46 1805.04L750 750Z" fill="#4480FF"/>
<path fill-rule="evenodd" clip-rule="evenodd" d="M750 750L866.88 1804.26L834.54 1807.44L750 750Z" fill="#437FFF"/>
<path fill-rule="evenodd" clip-rule="evenodd" d="M750 750L841.02 1806.84L808.56 1809.24L750 750Z" fill="#427FFF"/>
<path fill-rule="evenodd" clip-rule="evenodd" d="M750 750L815.04 1808.76L782.52 1810.32L750 750Z" fill="#417EFF"/>
<path fill-rule="evenodd" clip-rule="evenodd" d="M750 750L789.06 1810.02L756.48 1810.8L750 750Z" fill="#407DFF"/>
<path fill-rule="evenodd" clip-rule="evenodd" d="M749.997 750L763.017 1810.62H730.438L749.997 750Z" fill="#3F7DFF"/>
<path fill-rule="evenodd" clip-rule="evenodd" d="M750.001 750L736.981 1810.62L704.461 1809.84L750.001 750Z" fill="#3E7CFF"/>
<path fill-rule="evenodd" clip-rule="evenodd" d="M749.998 750L710.938 1810.02L678.418 1808.4L749.998 750Z" fill="#3D7BFF"/>
<path fill-rule="evenodd" clip-rule="evenodd" d="M750 750L684.96 1808.76L652.5 1806.36L750 750Z" fill="#3C7BFF"/>
<path fill-rule="evenodd" clip-rule="evenodd" d="M749.998 750L658.978 1806.84L626.578 1803.66L749.998 750Z" fill="#3B7AFF"/>
<path fill-rule="evenodd" clip-rule="evenodd" d="M750.001 750L633.061 1804.26L600.781 1800.3L750.001 750Z" fill="#3A79FF"/>
<path fill-rule="evenodd" clip-rule="evenodd" d="M749.999 750L607.259 1801.08L575.039 1796.28L749.999 750Z" fill="#3979FF"/>
<path fill-rule="evenodd" clip-rule="evenodd" d="M749.998 750L581.458 1797.24L549.418 1791.72L749.998 750Z" fill="#3878FF"/>
<path fill-rule="evenodd" clip-rule="evenodd" d="M749.998 750L555.838 1792.8L523.918 1786.44L749.998 750Z" fill="#3777FF"/>
<path fill-rule="evenodd" clip-rule="evenodd" d="M749.999 750L530.339 1787.7L498.539 1780.62L749.999 750Z" fill="#3677FF"/>
<path fill-rule="evenodd" clip-rule="evenodd" d="M750 750L504.9 1782.06L473.34 1774.14L750 750Z" fill="#3576FF"/>
<path fill-rule="evenodd" clip-rule="evenodd" d="M750.002 750L479.642 1775.7L448.262 1767.06L750.002 750Z" fill="#3475FF"/>
<path fill-rule="evenodd" clip-rule="evenodd" d="M749.998 750L454.558 1768.74L423.418 1759.32L749.998 750Z" fill="#3375FF"/>
<path fill-rule="evenodd" clip-rule="evenodd" d="M750.002 750L429.662 1761.18L398.762 1750.98L750.002 750Z" fill="#3274FF"/>
<path fill-rule="evenodd" clip-rule="evenodd" d="M750.001 750L404.941 1753.02L374.281 1742.1L750.001 750Z" fill="#3173FF"/>
<path fill-rule="evenodd" clip-rule="evenodd" d="M749.999 750L380.399 1744.26L350.039 1732.56L749.999 750Z" fill="#3073FF"/>
<path fill-rule="evenodd" clip-rule="evenodd" d="M749.999 750L356.099 1734.9L326.039 1722.42L749.999 750Z" fill="#2F72FF"/>
<path fill-rule="evenodd" clip-rule="evenodd" d="M750 750L332.04 1724.94L302.34 1711.74L750 750Z" fill="#2E71FF"/>
<path fill-rule="evenodd" clip-rule="evenodd" d="M749.999 750L308.279 1714.38L278.879 1700.46L749.999 750Z" fill="#2D71FF"/>
<path fill-rule="evenodd" clip-rule="evenodd" d="M750 750L284.76 1703.28L255.66 1688.64L750 750Z" fill="#2C70FF"/>
<path fill-rule="evenodd" clip-rule="evenodd" d="M750.001 750L261.481 1691.52L232.801 1676.22L750.001 750Z" fill="#2B6FFF"/>
<path fill-rule="evenodd" clip-rule="evenodd" d="M750 750L238.56 1679.28L210.18 1663.26L750 750Z" fill="#2A6EFF"/>
<path fill-rule="evenodd" clip-rule="evenodd" d="M750 750L215.88 1666.44L187.98 1649.7L750 750Z" fill="#296EFF"/>
<path fill-rule="evenodd" clip-rule="evenodd" d="M749.999 750L193.56 1653.06L166.02 1635.66L749.999 750Z" fill="#286DFF"/>
<path fill-rule="evenodd" clip-rule="evenodd" d="M750.001 750L171.54 1639.14L144.48 1621.02L750.001 750Z" fill="#276CFF"/>
<path fill-rule="evenodd" clip-rule="evenodd" d="M750.001 750L149.881 1624.68L123.301 1605.96L750.001 750Z" fill="#266CFF"/>
<path fill-rule="evenodd" clip-rule="evenodd" d="M750 750L128.64 1609.68L102.48 1590.3L750 750Z" fill="#256BFF"/>
<path fill-rule="evenodd" clip-rule="evenodd" d="M750 750L107.7 1594.2L82.0195 1574.16L750 750Z" fill="#246AFF"/>
<path fill-rule="evenodd" clip-rule="evenodd" d="M749.999 750L87.1791 1578.18L62.0391 1557.54L749.999 750Z" fill="#236AFF"/>
<path fill-rule="evenodd" clip-rule="evenodd" d="M749.998 750L67.078 1561.62L42.418 1540.38L749.998 750Z" fill="#2269FF"/>
<path fill-rule="evenodd" clip-rule="evenodd" d="M749.999 750L47.3388 1544.64L23.2188 1522.8L749.999 750Z" fill="#2168FF"/>
<path fill-rule="evenodd" clip-rule="evenodd" d="M750 750L28.08 1527.18L4.5 1504.74L750 750Z" fill="#2068FF"/>
<path fill-rule="evenodd" clip-rule="evenodd" d="M749.999 750L9.23922 1509.18L-13.8008 1486.2L749.999 750Z" fill="#1F67FF"/>
<path fill-rule="evenodd" clip-rule="evenodd" d="M749.999 750L-9.24109 1490.76L-31.6211 1467.24L749.999 750Z" fill="#1E66FF"/>
<path fill-rule="evenodd" clip-rule="evenodd" d="M750 750L-27.1795 1471.92L-49.0195 1447.8L750 750Z" fill="#1D66FF"/>
<path fill-rule="evenodd" clip-rule="evenodd" d="M749.997 750L-44.6428 1452.66L-65.8828 1428L749.997 750Z" fill="#1C65FF"/>
<path fill-rule="evenodd" clip-rule="evenodd" d="M749.998 750L-61.6217 1432.92L-82.2617 1407.78L749.998 750Z" fill="#1B64FF"/>
<path fill-rule="evenodd" clip-rule="evenodd" d="M750 750L-78.1802 1412.82L-98.1602 1387.14L750 750Z" fill="#1A64FF"/>
<path fill-rule="evenodd" clip-rule="evenodd" d="M749.998 750L-94.202 1392.3L-113.582 1366.14L749.998 750Z" fill="#1963FF"/>
<path fill-rule="evenodd" clip-rule="evenodd" d="M749.998 750L-109.682 1371.36L-128.402 1344.78L749.998 750Z" fill="#1862FF"/>
<path fill-rule="evenodd" clip-rule="evenodd" d="M750.002 750L-124.678 1350.12L-142.738 1323L750.002 750Z" fill="#1762FF"/>
<path fill-rule="evenodd" clip-rule="evenodd" d="M750.001 750L-139.139 1328.46L-156.539 1300.92L750.001 750Z" fill="#1661FF"/>
<path fill-rule="evenodd" clip-rule="evenodd" d="M749.999 750L-153.061 1306.44L-169.801 1278.54L749.999 750Z" fill="#1560FF"/>
<path fill-rule="evenodd" clip-rule="evenodd" d="M749.999 750L-166.441 1284.12L-182.461 1255.8L749.999 750Z" fill="#1460FF"/>
<path fill-rule="evenodd" clip-rule="evenodd" d="M749.999 750L-179.281 1261.44L-194.641 1232.76L749.999 750Z" fill="#135FFF"/>
<path fill-rule="evenodd" clip-rule="evenodd" d="M750 750L-191.58 1238.52L-206.16 1209.42L750 750Z" fill="#125EFF"/>
<path fill-rule="evenodd" clip-rule="evenodd" d="M749.999 750L-203.281 1215.24L-217.141 1185.84L749.999 750Z" fill="#115EFF"/>
<path fill-rule="evenodd" clip-rule="evenodd" d="M749.998 750L-214.382 1191.72L-227.582 1161.96L749.998 750Z" fill="#105DFF"/>
<path fill-rule="evenodd" clip-rule="evenodd" d="M749.998 750L-224.942 1167.9L-237.422 1137.84L749.998 750Z" fill="#0F5CFF"/>
<path fill-rule="evenodd" clip-rule="evenodd" d="M749.998 750L-234.902 1143.84L-246.602 1113.48L749.998 750Z" fill="#0E5BFF"/>
<path fill-rule="evenodd" clip-rule="evenodd" d="M750.002 750L-244.258 1119.6L-255.238 1088.94L750.002 750Z" fill="#0D5BFF"/>
<path fill-rule="evenodd" clip-rule="evenodd" d="M750.001 750L-253.079 1095.06L-263.219 1064.16L750.001 750Z" fill="#0C5AFF"/>
<path fill-rule="evenodd" clip-rule="evenodd" d="M750 750L-261.24 1070.34L-270.66 1039.2L750 750Z" fill="#0B59FF"/>
<path fill-rule="evenodd" clip-rule="evenodd" d="M749.999 750L-268.801 1045.44L-277.441 1014.06L749.999 750Z" fill="#0A59FF"/>
<path fill-rule="evenodd" clip-rule="evenodd" d="M749.999 750L-275.701 1020.36L-283.621 988.74L749.999 750Z" fill="#0958FF"/>
<path fill-rule="evenodd" clip-rule="evenodd" d="M749.999 750L-282.061 995.1L-289.141 963.36L749.999 750Z" fill="#0857FF"/>
<path fill-rule="evenodd" clip-rule="evenodd" d="M749.997 750L-287.763 969.66L-294.062 937.74L749.997 750Z" fill="#0757FF"/>
<path fill-rule="evenodd" clip-rule="evenodd" d="M749.997 750L-292.803 944.16L-298.383 912.12L749.997 750Z" fill="#0656FF"/>
<path fill-rule="evenodd" clip-rule="evenodd" d="M750.001 750L-297.239 918.48L-302.039 886.32L750.001 750Z" fill="#0555FF"/>
<path fill-rule="evenodd" clip-rule="evenodd" d="M750.001 750L-301.079 892.74L-305.039 860.46L750.001 750Z" fill="#0455FF"/>
<path fill-rule="evenodd" clip-rule="evenodd" d="M749.999 750L-304.261 866.88L-307.441 834.54L749.999 750Z" fill="#0354FF"/>
<path fill-rule="evenodd" clip-rule="evenodd" d="M750.002 750L-306.838 841.02L-309.238 808.56L750.002 750Z" fill="#0253FF"/>
<path fill-rule="evenodd" clip-rule="evenodd" d="M750 750L-308.76 815.04L-310.32 782.52L750 750Z" fill="#0153FF"/>
<path fill-rule="evenodd" clip-rule="evenodd" d="M749.999 750L-310.021 789.06L-310.801 756.48L749.999 750Z" fill="#0052FF"/>
<path fill-rule="evenodd" clip-rule="evenodd" d="M750 750L-310.68 763.02V736.98L750 750Z" fill="white"/>
</g>
</svg>
