<svg width="1500" height="1500" viewBox="0 0 1500 1500" fill="none" xmlns="http://www.w3.org/2000/svg">
<path d="M750 1500C1164.21 1500 1500 1164.21 1500 750C1500 335.786 1164.21 0 750 0C335.786 0 0 335.786 0 750C0 1164.21 335.786 1500 750 1500Z" fill="#627EEA"/>
<path d="M773.344 187.5V603.281L1124.77 760.312L773.344 187.5Z" fill="white" fill-opacity="0.602"/>
<path d="M773.344 187.5L421.875 760.312L773.344 603.281V187.5Z" fill="white"/>
<path d="M773.344 1029.75V1312.27L1125 825.75L773.344 1029.75Z" fill="white" fill-opacity="0.602"/>
<path d="M773.344 1312.27V1029.7L421.875 825.75L773.344 1312.27Z" fill="white"/>
<path d="M773.344 964.359L1124.77 760.312L773.344 603.375V964.359Z" fill="white" fill-opacity="0.2"/>
<path d="M421.875 760.312L773.344 964.359V603.375L421.875 760.312Z" fill="white" fill-opacity="0.602"/>
</svg>
