<svg width="1500" height="1500" viewBox="0 0 1500 1500" fill="none" xmlns="http://www.w3.org/2000/svg">
<path d="M750 1500C1164.21 1500 1500 1164.21 1500 750C1500 335.786 1164.21 0 750 0C335.786 0 0 335.786 0 750C0 1164.21 335.786 1500 750 1500Z" fill="#FF0420"/>
<path d="M531.299 949.2C486.599 949.2 449.999 938.7 421.499 917.7C393.299 896.4 379.199 865.8 379.199 826.5C379.199 818.1 380.099 808.2 381.899 796.2C386.699 769.2 393.599 736.8 402.599 698.7C428.099 595.5 494.099 543.9 600.299 543.9C629.099 543.9 655.199 548.7 677.999 558.6C700.799 567.9 718.799 582.3 731.999 601.5C745.199 620.4 751.799 642.9 751.799 669C751.799 676.8 750.899 686.7 749.099 698.7C743.399 732 736.799 764.7 728.699 796.2C715.499 847.5 692.999 886.2 660.599 911.7C628.499 936.9 585.299 949.2 531.299 949.2ZM539.399 868.2C560.399 868.2 578.099 861.9 592.799 849.6C607.799 837.3 618.599 818.4 624.899 792.6C633.599 757.2 640.199 726.6 644.699 700.2C646.199 692.4 647.099 684.3 647.099 675.9C647.099 641.7 629.399 624.6 593.699 624.6C572.699 624.6 554.699 630.9 539.699 643.2C524.999 655.5 514.499 674.4 508.199 700.2C501.299 725.4 494.699 756 487.799 792.6C486.299 800.1 485.399 807.9 485.399 816.3C485.099 851.1 503.399 868.2 539.399 868.2Z" fill="white"/>
<path d="M777.9 943.8C773.7 943.8 770.7 942.6 768.3 939.9C766.5 936.9 765.9 933.6 766.5 929.7L844.2 563.7C844.8 559.5 846.9 556.2 850.5 553.5C853.8 550.8 857.4 549.6 861.3 549.6H1011C1052.7 549.6 1086 558.3 1111.2 575.4C1136.7 592.8 1149.6 617.7 1149.6 650.4C1149.6 659.7 1148.4 669.6 1146.3 679.8C1137 723 1118.1 754.8 1089.3 775.5C1061.1 796.2 1022.4 806.4 973.2 806.4H897.3L871.5 929.7C870.6 933.9 868.8 937.2 865.2 939.9C861.9 942.6 858.3 943.8 854.4 943.8H777.9ZM977.1 728.7C993 728.7 1006.5 724.5 1018.2 715.8C1030.2 707.1 1038 694.8 1041.9 678.6C1043.1 672.3 1043.7 666.6 1043.7 661.8C1043.7 651 1040.4 642.6 1034.1 636.9C1027.8 630.9 1016.7 627.9 1001.4 627.9H933.9L912.6 728.7H977.1Z" fill="white"/>
</svg>
