<svg width="1500" height="1500" viewBox="0 0 1500 1500" fill="none" xmlns="http://www.w3.org/2000/svg">
<path d="M749.705 0C1164.11 0 1500 335.825 1500 750.148C1500 1164.47 1164.11 1500 750 1500C335.596 1500 0.000194376 1164.17 0.000194376 750.148C-0.294965 335.825 335.596 0 749.705 0Z" fill="#8247E5"/>
<mask id="mask0_192_104" style="mask-type:luminance" maskUnits="userSpaceOnUse" x="252" y="324" width="985" height="862">
<path d="M1236.12 324.316H252.949V1185.72H1236.12V324.316Z" fill="white"/>
</mask>
<g mask="url(#mask0_192_104)">
<path d="M995.572 586.661C977.567 576.332 954.545 576.332 934.179 586.661L790.731 671.65L693.329 725.654L552.538 810.348C534.533 820.676 511.511 820.676 491.145 810.348L381.05 743.36C363.045 733.031 350.353 712.374 350.353 689.356V560.692C350.353 540.035 360.684 519.673 381.05 506.688L491.145 442.356C509.149 432.028 532.172 432.028 552.538 442.356L662.632 509.344C680.637 519.673 693.329 540.33 693.329 563.348V648.337L790.731 591.678V504.328C790.731 483.671 780.401 463.309 760.035 450.324L555.194 329.333C537.189 319.004 514.167 319.004 493.801 329.333L283.943 452.98C263.577 463.309 253.246 483.966 253.246 504.328V746.016C253.246 766.673 263.577 787.035 283.943 800.019L491.44 921.011C509.444 931.339 532.467 931.339 552.833 921.011L693.624 838.677L791.026 782.018L931.817 699.685C949.822 689.356 972.845 689.356 993.211 699.685L1103.3 764.017C1121.31 774.345 1134 795.002 1134 818.02V946.685C1134 967.342 1123.67 987.704 1103.3 1000.69L995.867 1065.02C977.862 1075.35 954.84 1075.35 934.474 1065.02L824.084 1000.69C806.08 990.36 793.388 969.702 793.388 946.685V864.351L695.985 921.011V1006C695.985 1026.66 706.316 1047.02 726.682 1060L934.179 1180.99C952.183 1191.32 975.206 1191.32 995.572 1180.99L1203.07 1060C1221.07 1049.67 1233.77 1029.02 1233.77 1006V761.656C1233.77 740.999 1223.43 720.637 1203.07 707.653L995.572 586.661Z" fill="white"/>
</g>
</svg>
