<svg width="1500" height="1500" viewBox="0 0 1500 1500" fill="none" xmlns="http://www.w3.org/2000/svg">
<circle cx="750" cy="749" r="429" fill="white"/>
<path d="M1500 678.337C1327.65 -320.22 24.5482 -126.852 1.02284 678.337C76.2018 717.215 123.253 741.259 123.253 741.259C123.253 741.259 83.3617 765.302 0 818.504C150.869 1797.11 1431.98 1654.9 1500 816.969C1418.68 766.836 1374.19 740.747 1374.19 740.747C1374.19 740.747 1412.04 722.331 1500 678.337ZM858.677 1026.71L736.447 816.457L612.172 1026.71L518.07 1020.06L695.022 721.819L535.459 464.507L631.606 455.81L745.142 646.621L858.677 464.507L948.176 466.553L799.864 719.773L963.519 1024.15L858.677 1026.71Z" fill="#B8B5B1"/>
<path d="M1439.14 638.947C1205.93 -248.091 135.016 -8.1712 61.8825 638.947C210.195 722.331 243.949 742.281 243.949 742.281C243.949 742.281 186.669 779.113 61.3711 858.405C220.935 1711.17 1375.73 1547.47 1439.14 857.382C1322.54 784.229 1254.01 741.77 1254.01 741.77C1254.01 741.77 1411.01 654.294 1439.14 638.947ZM858.678 1027.73L736.448 817.48L612.172 1027.73L518.071 1021.08L695.023 722.842L535.459 465.53L631.606 456.833L745.142 647.644L858.678 465.53L948.176 467.576L799.864 720.796L963.519 1025.17L858.678 1027.73Z" fill="#254C82"/>
</svg>
